<svg width="26" height="26" viewBox="0 0 26 26" fill="none" xmlns="http://www.w3.org/2000/svg">
<path d="M22.9775 17.2142C22.2883 18.844 21.2103 20.2802 19.8379 21.3972C18.4654 22.5142 16.8402 23.278 15.1043 23.6218C13.3684 23.9656 11.5748 23.879 9.88016 23.3694C8.18553 22.8599 6.64151 21.943 5.3831 20.6989C4.1247 19.4547 3.19021 17.9213 2.66135 16.2326C2.13249 14.5439 2.02536 12.7514 2.34931 11.0117C2.67327 9.272 3.41845 7.63817 4.51972 6.25302C5.62098 4.86787 7.04479 3.77358 8.66667 3.06582M23.8333 13C23.8333 11.5773 23.5531 10.1686 23.0087 8.85425C22.4643 7.53989 21.6663 6.34563 20.6603 5.33967C19.6544 4.3337 18.4601 3.53572 17.1457 2.99129C15.8314 2.44687 14.4227 2.16666 13 2.16666V13H23.8333Z" stroke="black" stroke-opacity="0.6" stroke-width="2" stroke-linecap="round" stroke-linejoin="round"/>
</svg>
