<svg width="23" height="27" viewBox="0 0 23 27" fill="none" xmlns="http://www.w3.org/2000/svg">
<path d="M21.1305 11.3199C21.1305 18.9503 11.3199 25.4907 11.3199 25.4907C11.3199 25.4907 1.50932 18.9503 1.50932 11.3199C1.50932 8.71796 2.54293 6.2226 4.38277 4.38277C6.2226 2.54293 8.71796 1.50932 11.3199 1.50932C13.9218 1.50932 16.4172 2.54293 18.257 4.38277C20.0968 6.2226 21.1305 8.71796 21.1305 11.3199Z" fill="#529319"/>
<path d="M11.3199 14.5901C13.126 14.5901 14.5901 13.126 14.5901 11.3199C14.5901 9.51381 13.126 8.0497 11.3199 8.0497C9.51381 8.0497 8.0497 9.51381 8.0497 11.3199C8.0497 13.126 9.51381 14.5901 11.3199 14.5901Z" fill="#529319"/>
<path d="M21.1305 11.3199C21.1305 18.9503 11.3199 25.4907 11.3199 25.4907C11.3199 25.4907 1.50932 18.9503 1.50932 11.3199C1.50932 8.71796 2.54293 6.2226 4.38277 4.38277C6.2226 2.54293 8.71796 1.50932 11.3199 1.50932C13.9218 1.50932 16.4172 2.54293 18.257 4.38277C20.0968 6.2226 21.1305 8.71796 21.1305 11.3199Z" stroke="white" stroke-width="3" stroke-linecap="round" stroke-linejoin="round"/>
<path d="M11.3199 14.5901C13.126 14.5901 14.5901 13.126 14.5901 11.3199C14.5901 9.51381 13.126 8.0497 11.3199 8.0497C9.51381 8.0497 8.0497 9.51381 8.0497 11.3199C8.0497 13.126 9.51381 14.5901 11.3199 14.5901Z" stroke="white" stroke-width="3" stroke-linecap="round" stroke-linejoin="round"/>
</svg>
