<svg width="26" height="26" viewBox="0 0 26 26" fill="none" xmlns="http://www.w3.org/2000/svg">
<path d="M14.0833 13C14.0833 12.4017 13.5983 11.9166 13 11.9166C12.4017 11.9166 11.9167 12.4017 11.9167 13C11.9167 13.5983 12.4017 14.0833 13 14.0833C13.5983 14.0833 14.0833 13.5983 14.0833 13Z" stroke="black" stroke-opacity="0.6" stroke-width="2" stroke-linecap="round" stroke-linejoin="round"/>
<path d="M6.5 13C6.5 12.4017 6.01498 11.9166 5.41667 11.9166C4.81836 11.9166 4.33333 12.4017 4.33333 13C4.33333 13.5983 4.81836 14.0833 5.41667 14.0833C6.01498 14.0833 6.5 13.5983 6.5 13Z" stroke="black" stroke-opacity="0.6" stroke-width="2" stroke-linecap="round" stroke-linejoin="round"/>
<path d="M21.6667 13C21.6667 12.4017 21.1816 11.9166 20.5833 11.9166C19.985 11.9166 19.5 12.4017 19.5 13C19.5 13.5983 19.985 14.0833 20.5833 14.0833C21.1816 14.0833 21.6667 13.5983 21.6667 13Z" stroke="black" stroke-opacity="0.6" stroke-width="2" stroke-linecap="round" stroke-linejoin="round"/>
</svg>
