<svg width="26" height="26" viewBox="0 0 26 26" fill="none" xmlns="http://www.w3.org/2000/svg">
<g clip-path="url(#clip0_6_24)">
<path d="M13 16.25C14.7949 16.25 16.25 14.7949 16.25 13C16.25 11.2051 14.7949 9.75001 13 9.75001C11.2051 9.75001 9.75 11.2051 9.75 13C9.75 14.7949 11.2051 16.25 13 16.25Z" stroke="black" stroke-opacity="0.6" stroke-width="2" stroke-linecap="round" stroke-linejoin="round"/>
<path d="M21.0167 16.25C20.8725 16.5768 20.8294 16.9392 20.8932 17.2906C20.9569 17.6421 21.1244 17.9664 21.3742 18.2217L21.4392 18.2867C21.6406 18.4879 21.8004 18.7269 21.9095 18.9899C22.0185 19.2529 22.0746 19.5349 22.0746 19.8196C22.0746 20.1043 22.0185 20.3863 21.9095 20.6493C21.8004 20.9123 21.6406 21.1513 21.4392 21.3525C21.2379 21.554 20.999 21.7138 20.736 21.8228C20.4729 21.9318 20.191 21.988 19.9062 21.988C19.6215 21.988 19.3396 21.9318 19.0765 21.8228C18.8135 21.7138 18.5746 21.554 18.3733 21.3525L18.3083 21.2875C18.053 21.0378 17.7287 20.8702 17.3773 20.8065C17.0259 20.7428 16.6634 20.7858 16.3367 20.93C16.0162 21.0673 15.743 21.2954 15.5505 21.586C15.358 21.8767 15.2547 22.2172 15.2533 22.5658V22.75C15.2533 23.3246 15.0251 23.8757 14.6187 24.2821C14.2124 24.6884 13.6613 24.9167 13.0867 24.9167C12.512 24.9167 11.9609 24.6884 11.5546 24.2821C11.1483 23.8757 10.92 23.3246 10.92 22.75V22.6525C10.9116 22.2939 10.7955 21.9462 10.5869 21.6544C10.3782 21.3627 10.0866 21.1405 9.75 21.0167C9.42325 20.8725 9.06079 20.8295 8.70936 20.8932C8.35793 20.9569 8.03365 21.1244 7.77833 21.3742L7.71333 21.4392C7.51211 21.6406 7.27315 21.8004 7.01012 21.9095C6.74709 22.0185 6.46515 22.0746 6.18042 22.0746C5.89568 22.0746 5.61374 22.0185 5.35071 21.9095C5.08768 21.8004 4.84872 21.6406 4.6475 21.4392C4.44605 21.238 4.28624 20.999 4.1772 20.736C4.06817 20.4729 4.01204 20.191 4.01204 19.9063C4.01204 19.6215 4.06817 19.3396 4.1772 19.0766C4.28624 18.8135 4.44605 18.5746 4.6475 18.3733L4.7125 18.3083C4.96225 18.053 5.12978 17.7287 5.1935 17.3773C5.25722 17.0259 5.21421 16.6634 5.07 16.3367C4.93267 16.0163 4.70465 15.743 4.414 15.5505C4.12336 15.358 3.78277 15.2547 3.43417 15.2533H3.25C2.67536 15.2533 2.12426 15.0251 1.71793 14.6187C1.31161 14.2124 1.08333 13.6613 1.08333 13.0867C1.08333 12.512 1.31161 11.9609 1.71793 11.5546C2.12426 11.1483 2.67536 10.92 3.25 10.92H3.3475C3.70608 10.9116 4.05384 10.7956 4.34557 10.5869C4.63731 10.3782 4.85952 10.0866 4.98333 9.75001C5.12754 9.42326 5.17056 9.0608 5.10684 8.70937C5.04312 8.35794 4.87558 8.03366 4.62583 7.77834L4.56083 7.71334C4.35938 7.51212 4.19957 7.27316 4.09054 7.01013C3.9815 6.7471 3.92538 6.46516 3.92538 6.18043C3.92538 5.89569 3.9815 5.61375 4.09054 5.35072C4.19957 5.08769 4.35938 4.84873 4.56083 4.64751C4.76206 4.44606 5.00102 4.28625 5.26405 4.17721C5.52707 4.06818 5.80902 4.01206 6.09375 4.01206C6.37848 4.01206 6.66042 4.06818 6.92345 4.17721C7.18648 4.28625 7.42544 4.44606 7.62667 4.64751L7.69167 4.71251C7.94698 4.96226 8.27127 5.12979 8.62269 5.19351C8.97412 5.25724 9.33658 5.21422 9.66333 5.07001H9.75C10.0704 4.93268 10.3437 4.70466 10.5362 4.41401C10.7286 4.12337 10.8319 3.78278 10.8333 3.43418V3.25001C10.8333 2.67537 11.0616 2.12427 11.4679 1.71795C11.8743 1.31162 12.4254 1.08334 13 1.08334C13.5746 1.08334 14.1257 1.31162 14.5321 1.71795C14.9384 2.12427 15.1667 2.67537 15.1667 3.25001V3.34751C15.1681 3.69611 15.2713 4.0367 15.4638 4.32735C15.6563 4.618 15.9296 4.84602 16.25 4.98334C16.5767 5.12755 16.9392 5.17057 17.2906 5.10685C17.6421 5.04313 17.9663 4.87559 18.2217 4.62584L18.2867 4.56084C18.4879 4.35939 18.7268 4.19958 18.9899 4.09055C19.2529 3.98151 19.5348 3.92539 19.8196 3.92539C20.1043 3.92539 20.3863 3.98151 20.6493 4.09055C20.9123 4.19958 21.1513 4.35939 21.3525 4.56084C21.5539 4.76207 21.7138 5.00103 21.8228 5.26406C21.9318 5.52709 21.988 5.80903 21.988 6.09376C21.988 6.37849 21.9318 6.66043 21.8228 6.92346C21.7138 7.18649 21.5539 7.42545 21.3525 7.62668L21.2875 7.69168C21.0377 7.947 20.8702 8.27128 20.8065 8.62271C20.7428 8.97413 20.7858 9.33659 20.93 9.66334V9.75001C21.0673 10.0704 21.2953 10.3437 21.586 10.5362C21.8766 10.7287 22.2172 10.832 22.5658 10.8333H22.75C23.3246 10.8333 23.8757 11.0616 24.2821 11.4679C24.6884 11.8743 24.9167 12.4254 24.9167 13C24.9167 13.5746 24.6884 14.1257 24.2821 14.5321C23.8757 14.9384 23.3246 15.1667 22.75 15.1667H22.6525C22.3039 15.1681 21.9633 15.2714 21.6727 15.4638C21.382 15.6563 21.154 15.9296 21.0167 16.25Z" stroke="black" stroke-opacity="0.6" stroke-width="2" stroke-linecap="round" stroke-linejoin="round"/>
</g>
<defs>
<clipPath id="clip0_6_24">
<rect width="26" height="26" fill="white"/>
</clipPath>
</defs>
</svg>
